<?xml version="1.0" standalone="no"?>
<!DOCTYPE svg PUBLIC "-//W3C//DTD SVG 20010904//EN"
 "http://www.w3.org/TR/2001/REC-SVG-20010904/DTD/svg10.dtd">
<svg version="1.0" xmlns="http://www.w3.org/2000/svg"
 width="1024.000000pt" height="1024.000000pt" viewBox="0 0 1024.000000 1024.000000"
 preserveAspectRatio="xMidYMid meet">

<g transform="translate(0.000000,1024.000000) scale(0.100000,-0.100000)"
fill="#000000" stroke="none">
<path d="M3018 7463 c20 -8 14 -24 -23 -59 -28 -28 -42 -34 -78 -34 -34 0 -48
5 -66 26 l-23 26 -21 -20 c-27 -27 -29 -108 -3 -146 l17 -27 20 25 c11 14 37
30 57 36 67 18 224 23 330 10 96 -12 104 -11 124 6 31 29 40 62 28 100 -20 59
-36 64 -215 63 -88 0 -154 -3 -147 -6z"/>
<path d="M5190 7295 c0 -2 16 -9 37 -14 38 -11 65 -4 42 10 -14 9 -79 13 -79
4z"/>
<path d="M5013 7233 c9 -2 23 -2 30 0 6 3 -1 5 -18 5 -16 0 -22 -2 -12 -5z"/>
<path d="M5168 7233 c23 -2 59 -2 80 0 20 2 1 4 -43 4 -44 0 -61 -2 -37 -4z"/>
<path d="M3025 6830 c10 -15 -21 -57 -53 -74 -54 -28 -116 -21 -127 15 -8 24
-17 24 -41 -2 -25 -27 -26 -105 -2 -142 l18 -26 24 24 c39 39 91 46 274 41 92
-2 177 -5 190 -6 49 -4 87 56 71 114 -17 60 -34 66 -207 66 -104 0 -151 -3
-147 -10z"/>
<path d="M3005 6080 c13 -22 -8 -62 -41 -76 -68 -28 -134 -12 -113 28 14 25
-4 23 -36 -5 -35 -30 -44 -91 -20 -141 17 -36 35 -48 35 -22 0 7 17 22 38 32
32 17 60 19 217 18 99 0 195 -2 213 -4 38 -4 78 28 87 71 7 32 -16 83 -44 99
-25 13 -344 14 -336 0z"/>
<path d="M3028 5243 c-9 -2 -15 -10 -12 -16 2 -7 -6 -25 -19 -41 -20 -24 -33
-30 -79 -34 -49 -4 -57 -2 -75 21 -45 58 -85 -50 -47 -129 9 -19 18 -34 19
-34 2 0 17 13 33 29 22 22 42 31 83 36 67 8 336 2 365 -9 15 -5 29 0 52 19 27
23 32 34 32 71 0 34 -6 51 -25 69 -23 24 -28 25 -167 24 -79 -1 -151 -3 -160
-6z"/>
<path d="M3034 4582 c12 -19 -34 -70 -78 -87 -63 -24 -115 -9 -119 34 -1 22
-3 22 -29 -8 -35 -40 -36 -90 -1 -146 13 -19 14 -19 27 -2 26 33 100 47 252
47 79 0 163 -5 187 -12 37 -9 47 -9 69 6 54 35 60 105 13 152 -23 23 -29 24
-175 24 -83 0 -149 -4 -146 -8z"/>
</g>
</svg>
